<?xml version="1.0" standalone="no"?>
<!DOCTYPE svg PUBLIC "-//W3C//DTD SVG 20010904//EN"
 "http://www.w3.org/TR/2001/REC-SVG-20010904/DTD/svg10.dtd">
<svg version="1.0" xmlns="http://www.w3.org/2000/svg"
 width="128.000000pt" height="128.000000pt" viewBox="0 0 128.000000 128.000000"
 preserveAspectRatio="xMidYMid meet">
<metadata>
Created by potrace 1.14, written by Peter Selinger 2001-2017
</metadata>
<g transform="translate(0.000000,128.000000) scale(0.100000,-0.100000)"
fill="#000000" stroke="none">
<path d="M147 1033 c-4 -3 -7 -147 -7 -320 l0 -313 -41 0 c-41 0 -41 0 -35
-32 7 -39 31 -74 70 -102 27 -21 38 -21 506 -21 468 0 479 0 506 21 39 28 63
63 70 102 6 32 6 32 -35 32 l-41 0 -2 318 -3 317 -491 3 c-270 1 -494 -1 -497
-5z m913 -353 l0 -280 -420 0 -420 0 0 280 0 280 420 0 420 0 0 -280z m-125
-360 c0 -13 -40 -15 -289 -18 -169 -1 -294 2 -299 7 -28 28 10 31 296 29 252
-3 292 -5 292 -18z"/>
<path d="M631 704 c-78 -126 -82 -134 -65 -141 10 -3 151 212 157 239 1 6 -3
12 -9 15 -6 2 -44 -49 -83 -113z"/>
<path d="M428 742 c-31 -26 -57 -54 -57 -62 0 -8 26 -36 58 -62 47 -38 61 -45
70 -35 8 10 -1 22 -39 51 -28 21 -50 41 -50 45 0 4 22 26 50 48 37 31 47 43
37 51 -9 7 -28 -3 -69 -36z"/>
<path d="M780 767 c0 -6 20 -28 45 -47 24 -19 44 -38 45 -42 0 -3 -22 -24 -49
-46 -36 -28 -47 -42 -39 -50 8 -8 27 2 69 35 33 25 59 51 59 58 0 15 -103 105
-119 105 -6 0 -11 -6 -11 -13z"/>
</g>
</svg>
